<svg xmlns="http://www.w3.org/2000/svg" viewBox="0 0 250 90" aria-label="Logo do Senac">
  <path fill="#00366b" d="M106.5,84.1c-8.5,0-15.5-2.2-21.2-6.5c-5.7-4.3-8.5-10-8.5-17.2c0-8,3.2-14.5,9.5-19.5 c6.3-5,14.2-7.5,23.5-7.5c8.3,0,15.2,1.8,20.5,5.5c5.3,3.7,8,8.5,8,14.5c0,3.3-0.9,6.3-2.8,9.2c-1.9,2.8-4.3,5-7.3,6.5 C122.2,82.4,115.1,84.1,106.5,84.1z M106.5,41.1c-6.8,0-12.5,2-17.2,6.2c-4.7,4.2-7,9.5-7,16c0,5.7,2.2,10.3,6.5,13.8 c4.3,3.5,9.7,5.2,16,5.2c6.7,0,12.3-1.9,16.8-5.8c4.5-3.8,6.8-8.8,6.8-14.8c0-6-2.2-11-6.5-14.8C118,43,112.7,41.1,106.5,41.1z"></path>
  <path fill="#00366b" d="M149.2,82.6h-13.9V34.8h13.9V82.6z"></path>
  <path fill="#00366b" d="M178.5,82.6h-13.9V34.8h13.9V82.6z"></path>
  <path fill="#00366b" d="M232.8,82.6h-13.9l-13.9-20.2l-1.5,1.5v18.7h-13.2V34.8h13.2v18.4l14.2-19.9h15.2l-15.8,22.2L232.8,82.6z"></path>
  <path fill="#00366b" d="M26.8,82.6H12.9V34.8h13.9V82.6z"></path>
  <path fill="#00366b" d="M59.9,82.6H46V34.8h13.9V82.6z"></path>
  <path fill="#f0a91c" d="M110.1,28.3c-2.8-0.9-5.9-1.4-9.5-1.4c-8.3,0-15.2,1.8-20.5,5.5c-5.3,3.7-8,8.5-8,14.5 c0,1.8,0.2,3.5,0.6,5.2c2.5-12.2,10.2-21.8,22.5-26.2C102.5,23.3,108,25.3,110.1,28.3z"></path>
  <path fill="#00366b" d="M110.1,28.3C108,25.3,102.5,23.3,95.3,26c-12.3,4.3-20,14-22.5,26.2c-0.2,1-0.2,2-0.2,3 c-2.2-0.8-4.2-2-6-3.5L34,22.9L32.2,7.5h83.8l-5.3,15.7h-0.2C110.4,23.2,110.2,25.7,110.1,28.3z"></path>
</svg>