<svg xmlns="http://www.w3.org/2000/svg" viewBox="0 0 250 90"><path d="M123.11 80.37V62.42h-6.49v-4.33h6.49v-7.38c0-5.18 2.34-8.72 7.7-8.72h5.1v4.22h-3.92c-2.9 0-3.21 1.08-3.21 3.12v8.76h7.22l-.68 4.33h-6.54v17.95h-9.17ZM145.41 80.37V42h-5.69v-4.33h15.22v4.33h-5.7v38.37h-3.83ZM161.44 80.37l-5.1-13.91h-8.24l-5.14 13.91h-4.33l11.1-30.08h4.94l11.1 30.08h-4.33Zm-11.45-17.72h4.5l-2.25-6.2-2.25 6.2ZM185.73 80.37l-5.1-13.91h-8.24l-5.14 13.91h-4.33l11.1-30.08h4.94l11.1 30.08h-4.33Zm-11.45-17.72h4.5l-2.25-6.2-2.25 6.2ZM201.76 80.37l-5.1-13.91h-8.24l-5.14 13.91h-4.33l11.1-30.08h4.94l11.1 30.08h-4.33Zm-11.45-17.72h4.5l-2.25-6.2-2.25 6.2ZM219.86 53.68c3.21 0 5.39 2.07 5.39 5.27v1.89h-10.86v-1.61c0-3.38 2.33-5.55 5.47-5.55Zm.42 26.69c-4.94 0-7.88-2.59-7.88-7.56V69h15.58v4.19c0 4.97-2.93 7.19-7.7 7.19Zm-1.89-29.02c-5.35 0-8.93 3.6-8.93 8.93v1.89h18.27v-1.61c0-5.43-3.6-9.21-9.34-9.21ZM241.67 80.37l-5.1-13.91h-8.24l-5.14 13.91h-4.33l11.1-30.08h4.94l11.1 30.08h-4.33Zm-11.45-17.72h4.5l-2.25-6.2-2.25 6.2Z" fill="#005594"/><path d="M48.24 0 0 27.85v33.43L48.24 90l48.24-28.72V27.85L48.24 0Zm0 81.16L9.65 60.05V30.22L48.24 9.11l38.59 21.11v29.83L48.24 81.16Z" fill="#F7941D"/></svg>